<?xml version="1.0" standalone="no"?>
<!DOCTYPE svg PUBLIC "-//W3C//DTD SVG 20010904//EN"
 "http://www.w3.org/TR/2001/REC-SVG-20010904/DTD/svg10.dtd">
<svg version="1.0" xmlns="http://www.w3.org/2000/svg"
 width="2000.000000pt" height="2000.000000pt" viewBox="0 0 2000.000000 2000.000000"
 preserveAspectRatio="xMidYMid meet">
<metadata>
Created by potrace 1.11, written by Peter Selinger 2001-2013
</metadata>
<g transform="translate(0.000000,2000.000000) scale(0.100000,-0.100000)"
fill="#000000" stroke="none">
<path d="M3052 9990 l0 -8141 2706 4 c1489 2 2750 7 2802 10 52 3 158 9 235
12 77 3 156 8 175 10 19 2 89 7 155 10 66 4 138 8 160 10 61 4 196 16 235 20
19 2 69 6 110 10 41 3 91 8 110 10 19 2 62 7 95 10 33 4 71 8 85 10 64 10 161
22 240 30 30 3 66 8 80 10 14 2 43 7 65 10 23 3 52 8 65 10 14 3 41 8 60 11
19 2 46 7 60 9 14 2 45 7 70 10 25 3 70 10 100 16 30 5 69 12 85 14 17 3 64
12 105 20 41 8 91 17 110 20 19 3 69 13 110 21 100 21 98 21 155 34 28 6 59
13 70 16 54 10 218 49 280 66 39 11 77 21 85 23 8 1 35 8 60 15 25 7 54 14 65
16 22 4 108 29 235 69 47 14 92 28 100 30 8 2 77 24 153 50 l139 47 330 -331
331 -331 1450 0 1450 0 -469 470 c-258 259 -627 630 -821 824 l-352 353 22 20
c12 11 47 38 77 60 30 22 65 49 76 59 12 11 43 37 70 59 206 170 339 296 565
535 83 88 250 287 322 385 37 50 73 98 81 109 74 96 264 388 332 511 6 11 26
45 44 75 38 65 205 391 239 470 14 30 42 93 64 140 55 120 176 439 232 610 26
80 51 154 56 165 7 17 28 89 35 120 1 6 10 37 20 70 10 33 19 65 20 70 1 6 27
109 57 230 52 207 61 244 72 305 3 14 11 59 20 100 8 41 17 91 20 110 4 19 10
53 15 75 11 48 15 75 30 180 6 44 15 103 20 130 5 28 11 66 14 85 13 95 26
201 31 250 7 65 13 122 20 170 2 19 7 69 10 110 3 41 7 95 10 120 16 169 25
303 31 450 3 74 7 176 10 225 5 117 6 918 0 1015 -2 41 -7 143 -10 225 -6 143
-10 200 -21 325 -3 30 -8 87 -10 125 -8 114 -15 188 -20 228 -8 59 -13 105
-25 212 -11 106 -18 158 -24 190 -5 27 -18 115 -21 143 -5 36 -26 159 -42 247
-8 44 -16 89 -18 100 -23 138 -120 568 -160 710 -48 170 -54 190 -81 280 -15
50 -31 97 -35 105 -7 14 -65 188 -73 220 -5 17 -112 294 -126 325 -12 27 -52
117 -105 240 -68 156 -264 532 -301 575 -7 8 -13 19 -13 23 0 11 -62 112 -158
257 -209 317 -451 614 -723 889 -140 142 -439 400 -590 511 -41 30 -77 57 -80
61 -11 14 -179 129 -188 129 -6 0 -12 3 -14 8 -1 4 -40 31 -85 61 -46 29 -83
55 -83 57 0 5 63 65 340 324 124 116 299 281 335 315 23 22 97 92 165 155 68
63 140 131 160 150 20 19 94 89 165 155 70 66 164 154 209 197 l81 76 -1418 0
-1418 0 -33 -32 c-17 -17 -92 -87 -165 -156 -73 -69 -162 -152 -196 -185 -160
-152 -154 -147 -183 -143 -15 3 -113 28 -219 57 -106 29 -200 54 -210 55 -10
2 -38 9 -63 16 -25 7 -52 13 -60 15 -8 2 -45 10 -81 19 -116 27 -520 108 -629
125 -41 7 -95 17 -120 21 -25 5 -67 12 -95 15 -27 3 -75 10 -105 15 -30 5 -75
12 -100 15 -25 3 -56 8 -70 10 -14 3 -50 7 -80 10 -30 3 -72 7 -92 10 -38 5
-87 11 -155 20 -21 2 -56 6 -78 9 -22 3 -69 8 -105 11 -36 3 -81 7 -100 10
-19 2 -71 7 -115 11 -44 3 -96 7 -115 9 -38 4 -156 12 -290 21 -47 3 -106 7
-132 9 -26 2 -109 7 -185 10 -76 3 -190 9 -253 12 -63 3 -1322 7 -2797 9
l-2681 4 0 -8140z m5678 6316 c41 -3 129 -8 195 -11 66 -3 136 -8 155 -10 19
-2 76 -6 125 -10 50 -4 108 -8 130 -11 62 -6 136 -15 175 -20 19 -2 60 -6 90
-9 30 -3 84 -10 120 -15 36 -5 83 -12 105 -15 22 -3 51 -7 65 -10 14 -2 47 -7
73 -10 26 -3 107 -17 180 -31 149 -28 176 -33 231 -42 l38 -7 -78 -74 c-44
-41 -146 -137 -228 -215 -82 -78 -161 -152 -176 -166 -14 -14 -86 -81 -160
-150 -190 -179 -305 -287 -535 -505 -40 -37 -257 -242 -330 -310 -29 -27 -238
-224 -350 -330 -24 -22 -100 -94 -171 -160 -70 -66 -146 -138 -169 -160 -23
-22 -100 -94 -170 -160 -70 -66 -149 -140 -175 -165 -45 -42 -241 -227 -340
-320 -25 -23 -101 -95 -170 -160 -69 -65 -143 -135 -165 -155 -53 -50 -303
-286 -376 -355 -50 -47 -131 -124 -319 -300 -75 -71 -304 -287 -359 -338 -31
-30 -105 -99 -165 -155 -60 -56 -130 -122 -156 -147 -26 -25 -107 -101 -180
-170 -73 -69 -139 -131 -146 -137 -7 -7 -15 -13 -17 -13 -5 0 -6 4842 -1 4851
4 7 3141 2 3254 -5z m3806 -1082 c90 -62 156 -110 188 -139 6 -5 40 -32 76
-60 101 -78 367 -333 465 -446 84 -97 144 -168 175 -209 19 -25 38 -46 42 -48
5 -2 8 -8 8 -13 0 -5 22 -37 48 -72 79 -101 292 -440 292 -465 0 -5 4 -12 9
-14 10 -3 178 -343 210 -424 11 -28 30 -73 42 -100 12 -27 27 -62 34 -79 20
-48 135 -374 135 -384 0 -4 9 -37 21 -72 24 -74 121 -448 138 -529 16 -78 20
-101 26 -135 3 -16 8 -37 10 -45 2 -8 7 -28 10 -45 17 -93 33 -192 40 -240 3
-23 7 -50 9 -60 10 -52 29 -197 41 -306 3 -31 7 -65 9 -76 2 -10 7 -55 11 -98
3 -44 8 -93 10 -110 2 -16 7 -68 11 -115 3 -47 8 -101 9 -120 27 -331 27
-1394 0 -1640 -2 -19 -6 -69 -10 -110 -10 -144 -23 -280 -30 -320 -2 -14 -7
-52 -11 -85 -16 -150 -21 -193 -54 -400 -31 -199 -85 -466 -132 -650 -16 -66
-32 -127 -33 -135 -2 -8 -13 -46 -25 -85 -11 -38 -27 -92 -35 -120 -9 -27 -18
-60 -20 -73 -3 -13 -12 -40 -20 -60 -7 -20 -30 -84 -50 -142 -81 -231 -270
-653 -353 -790 -12 -19 -32 -57 -46 -83 -31 -58 -210 -338 -240 -375 -12 -15
-46 -61 -76 -102 -29 -41 -59 -79 -65 -85 -6 -5 -47 -53 -91 -105 -85 -101
-297 -319 -404 -413 l-65 -58 -1353 1358 c-1265 1270 -4161 4178 -4172 4189
-2 3 20 28 50 56 30 28 114 106 185 173 72 68 150 142 175 165 72 67 278 261
330 310 26 25 105 99 176 165 70 66 140 131 154 145 23 21 167 157 325 305 24
22 99 92 166 156 68 64 140 131 159 149 62 57 260 243 315 295 29 28 108 102
175 165 68 63 142 133 165 155 23 22 102 96 175 165 74 69 146 136 160 150 56
52 287 269 325 305 22 20 89 83 148 139 60 55 127 119 151 141 23 22 102 96
175 165 74 69 160 150 191 180 32 30 107 100 166 155 59 55 126 118 149 140
23 22 95 90 160 150 64 61 139 130 165 155 47 45 258 242 309 290 15 14 90 84
166 156 77 73 169 159 205 193 56 52 66 58 80 47 8 -8 60 -45 116 -82z m-5603
-7216 c796 -799 2020 -2026 2719 -2727 l1270 -1274 -112 -33 c-61 -18 -124
-35 -138 -37 -15 -2 -34 -6 -42 -10 -8 -3 -28 -8 -45 -11 -16 -3 -79 -17 -140
-30 -117 -27 -456 -90 -540 -101 -27 -3 -90 -12 -140 -20 -49 -8 -115 -17
-145 -20 -30 -3 -71 -7 -90 -10 -19 -2 -64 -7 -100 -11 -36 -3 -67 -7 -70 -9
-3 -1 -57 -6 -120 -10 -63 -4 -133 -9 -155 -10 -22 -2 -94 -7 -160 -11 -66 -3
-142 -8 -170 -11 -27 -2 -777 -7 -1666 -10 l-1616 -4 -1 2900 c0 1596 3 2901
6 2901 4 0 658 -654 1455 -1452z"/>
</g>
</svg>
